<?xml version="1.0" standalone="no"?>
<!DOCTYPE svg PUBLIC "-//W3C//DTD SVG 20010904//EN"
 "http://www.w3.org/TR/2001/REC-SVG-20010904/DTD/svg10.dtd">
<svg version="1.0" xmlns="http://www.w3.org/2000/svg"
 width="700.000000pt" height="350.000000pt" viewBox="0 0 700.000000 350.000000"
 preserveAspectRatio="xMidYMid meet">

<g transform="translate(0.000000,350.000000) scale(0.100000,-0.100000)"
fill="#000000" stroke="none">
<path d="M0 1750 l0 -1750 1770 0 1770 0 0 1750 0 1750 -1770 0 -1770 0 0
-1750z m1460 443 l0 -698 -255 -260 -254 -260 0 958 -1 957 255 0 255 0 0
-697z m1040 -231 c0 -4 -62 -69 -138 -145 l-139 -139 -141 137 c-78 76 -142
141 -142 146 0 5 124 9 280 9 154 0 280 -3 280 -8z m-280 -1007 l355 -355
-296 0 -297 0 -201 209 c-110 115 -201 212 -201 217 0 9 271 284 280 284 3 0
165 -160 360 -355z m-760 -205 l0 -150 -152 0 -153 0 150 150 c82 83 151 150
152 150 2 0 3 -67 3 -150z"/>
<path d="M6115 2797 c-57 -27 -129 -100 -153 -155 -23 -55 -21 -166 5 -224 30
-66 101 -133 164 -153 75 -25 182 -17 242 18 99 58 153 158 145 270 -5 75 -29
129 -83 182 -58 58 -107 79 -195 83 -63 2 -83 -1 -125 -21z"/>
<path d="M4495 1999 c-160 -26 -310 -123 -411 -265 -56 -79 -90 -155 -116
-263 -27 -116 -22 -320 12 -426 79 -247 250 -417 472 -470 78 -18 237 -19 303
-1 90 24 175 75 252 150 l73 72 0 -98 0 -98 255 0 255 0 -2 683 -3 682 -252 3
-253 2 0 -94 0 -94 -62 64 c-125 130 -319 187 -523 153z m375 -411 c85 -26
166 -113 192 -202 17 -62 14 -164 -7 -226 -27 -80 -111 -163 -190 -185 -75
-22 -176 -16 -238 14 -59 29 -120 90 -148 149 -33 68 -38 189 -10 263 61 160
231 240 401 187z"/>
<path d="M5970 1285 l0 -685 255 0 255 0 0 685 0 685 -255 0 -255 0 0 -685z"/>
</g>
</svg>
