<?xml version="1.0" standalone="no"?>
<!DOCTYPE svg PUBLIC "-//W3C//DTD SVG 20010904//EN"
 "http://www.w3.org/TR/2001/REC-SVG-20010904/DTD/svg10.dtd">
<svg version="1.0" xmlns="http://www.w3.org/2000/svg"
 width="350.000000pt" height="350.000000pt" viewBox="0 0 350.000000 350.000000"
 preserveAspectRatio="xMidYMid meet">

<g transform="translate(0.000000,350.000000) scale(0.100000,-0.100000)"
fill="#000000" stroke="none">
<path d="M0 1750 l0 -1750 1750 0 1750 0 0 1750 0 1750 -1750 0 -1750 0 0
-1750z m1440 433 l0 -698 -255 -260 -254 -260 0 958 -1 957 255 0 255 0 0
-697z m1040 -231 c0 -4 -62 -69 -138 -145 l-139 -139 -141 137 c-78 76 -142
141 -142 146 0 5 124 9 280 9 154 0 280 -3 280 -8z m-280 -1007 l355 -355
-296 0 -297 0 -201 209 c-110 115 -201 212 -201 217 0 9 271 284 280 284 3 0
165 -160 360 -355z m-760 -205 l0 -150 -152 0 -153 0 150 150 c82 83 151 150
152 150 2 0 3 -67 3 -150z"/>
</g>
</svg>
